<svg width="512" height="512" viewBox="0 0 512 512" fill="none" xmlns="http://www.w3.org/2000/svg">
<g clip-path="url(#clip0_2_2)">
<path d="M0 0C168.96 0 337.92 0 512 0C512 168.96 512 337.92 512 512C343.04 512 174.08 512 0 512C0 343.04 0 174.08 0 0Z" fill="#FEFDFB"/>
<path d="M426 81C466.518 113.59 490.836 170.106 499 220C499.185 221.022 499.371 222.044 499.562 223.096C501.19 232.868 501.306 242.498 501.261 252.384C501.25 255.166 501.261 257.947 501.273 260.729C501.306 300.847 490.918 339.637 472 375C471.386 376.156 470.773 377.313 470.141 378.504C459.896 397.11 446.603 413.645 432 429C431.462 429.567 430.924 430.133 430.37 430.717C422.149 439.313 413.562 446.933 404 454C403.438 454.422 402.877 454.845 402.298 455.28C352.012 493.034 287.353 509.675 224.967 501.873C171.897 494.248 123.32 471.74 85 434C83.8337 432.872 82.6671 431.744 81.5 430.617C61.0763 410.731 45.0027 386.792 33 361C32.6714 360.295 32.3429 359.589 32.0044 358.862C22.7259 338.621 16.1494 317.054 13 295C12.8248 293.797 12.6497 292.594 12.4692 291.354C10.8837 279.739 10.6012 268.211 10.625 256.5C10.6252 255.534 10.6254 254.568 10.6256 253.573C10.6589 238.332 11.634 223.908 15 209C15.3783 207.18 15.756 205.36 16.1328 203.539C24.7577 163.474 45.8374 114.793 79 89C77.6977 91.768 76.2501 94.1352 74.3828 96.5547C38.1852 144.43 22.3953 205.364 30.1914 264.941C36.397 305.892 52.5499 344.962 79 377C79.7036 377.856 79.7036 377.856 80.4214 378.729C90.2916 390.663 100.781 401.422 113 411C113.973 411.79 114.946 412.58 115.949 413.395C124.802 420.448 134.21 426.335 144 432C145.012 432.594 145.012 432.594 146.045 433.199C167.131 445.446 190.856 453.621 214.862 457.628C216.994 457.999 219.11 458.422 221.23 458.852C251.94 464.689 287.251 462.228 317 453C317.879 452.732 318.758 452.464 319.664 452.188C352.314 442.114 381.388 426.71 407 404C407.906 403.205 408.812 402.409 409.746 401.59C429.748 383.841 445.408 362.537 458 339C458.359 338.333 458.718 337.665 459.088 336.978C470.402 315.546 477.203 291.837 481 268C481.128 267.255 481.257 266.51 481.389 265.742C487.36 230.604 482.693 192.451 471 159C470.754 158.282 470.509 157.564 470.256 156.824C463.843 138.312 454.744 119.721 443 104C442.607 103.47 442.214 102.94 441.81 102.395C437.194 96.193 432.447 90.1566 427.18 84.4883C426 83 426 83 426 81Z" fill="#3F6708"/>
<path d="M199 73C213.127 76.0197 226.609 84.1631 237 94C237.788 94.7348 238.575 95.4695 239.387 96.2266C244.071 100.982 247.372 106.029 250.375 111.938C250.858 112.885 250.858 112.885 251.35 113.852C255.858 123.255 257.465 132.861 258.188 143.188C258.269 144.235 258.351 145.282 258.436 146.361C258.633 148.907 258.821 151.453 259 154C259.364 152.973 259.727 151.945 260.102 150.887C268.763 126.827 282.441 107.385 305.66 95.6562C315.757 91.3218 327.423 88.8786 338.395 88.8672C339.598 88.8659 340.801 88.8646 342.041 88.8633C343.286 88.8671 344.53 88.871 345.812 88.875C347.045 88.8711 348.278 88.8673 349.549 88.8633C356.118 88.8703 362.489 89.1132 369 90C367.424 93.1521 364.783 93.2558 361.5 94.375C330.114 105.65 300.726 123.943 280.004 150.465C278.115 152.855 276.132 155.079 274.062 157.312C272.708 158.874 271.354 160.437 270 162C269.125 162.922 268.249 163.843 267.348 164.793C261.134 171.832 259.231 178.017 258.723 187.344C258.65 188.434 258.578 189.523 258.503 190.646C257.758 202.926 257.738 215.203 257.812 227.5C257.82 229.869 257.827 232.239 257.834 234.608C257.736 266.362 257.736 266.362 260 298C260.158 297.356 260.316 296.712 260.478 296.048C266.025 274.228 283.682 260.294 302.109 249.203C308.788 245.357 315.679 241.892 322.523 238.355C328.991 235.012 335.44 231.633 341.869 228.215C343.629 227.281 345.393 226.354 347.156 225.427C371.836 212.386 371.836 212.386 390 192C390.66 192 391.32 192 392 192C397.018 222.471 387.656 254.895 369.961 279.879C368.041 282.322 366.056 284.671 364 287C363.279 287.84 362.559 288.681 361.816 289.547C341.304 313.01 312.059 327.529 281 330C274.037 330.349 274.037 330.349 271 330C270.34 329.34 269.68 328.68 269 328C269.163 323.014 272.1 319.427 274.875 315.5C275.369 314.794 275.863 314.087 276.372 313.36C281.198 306.557 286.423 300.196 292 294C292.54 293.398 293.081 292.796 293.637 292.176C306.625 277.791 320.45 265.553 336 254C337.334 253.001 338.667 252.001 340 251C321.67 259.121 305.091 268.692 290 282C289.481 282.448 288.962 282.896 288.427 283.358C274.204 295.68 263.644 308.632 262 328C261.858 330.859 261.814 333.712 261.797 336.574C261.79 337.369 261.783 338.164 261.776 338.983C261.759 341.551 261.753 344.119 261.75 346.688C261.748 347.564 261.745 348.44 261.743 349.343C261.727 365.725 262.888 381.75 265 398C313.112 395.026 359.241 375.383 391.774 339.017C393.198 337.358 394.601 335.681 396 334C396 347.192 376.257 365.613 367.476 374.551C363.579 378.377 359.353 381.714 355 385C354.013 385.776 353.025 386.552 352.008 387.352C336.61 399.152 318.714 407.961 300 413C299.276 413.195 298.552 413.391 297.806 413.592C292.9 414.883 287.972 415.997 283 417C281.9 417.227 280.801 417.454 279.668 417.688C261.282 420.889 242.23 419.456 224 416C222.854 415.783 222.854 415.783 221.684 415.562C196.038 410.52 171.765 397.983 152 381C151.01 380.153 151.01 380.153 150.001 379.289C133.793 365.22 122.02 348.55 111.875 329.75C111.472 329.01 111.069 328.271 110.654 327.509C109.704 325.705 108.843 323.856 108 322C108.495 321.01 108.495 321.01 109 320C109.438 320.632 109.877 321.263 110.328 321.914C137.476 360.208 178.141 387.035 224.624 395.477C229.402 396.198 234.182 396.626 239 397C242.002 397.315 245.001 397.654 248 398C247.945 397.367 247.889 396.734 247.832 396.083C247.573 393.097 247.318 390.111 247.062 387.125C246.975 386.131 246.888 385.137 246.799 384.113C245.516 369.01 244.856 354.028 245.017 338.875C245.044 336.159 245.061 333.444 245.076 330.728C245.118 323.022 245.166 315.316 245.247 307.61C245.296 302.856 245.324 298.102 245.341 293.347C245.35 291.561 245.367 289.775 245.392 287.989C245.797 258.457 234.425 235.259 214 214C204.221 204.369 192.282 196.664 179 193C179.727 193.45 180.454 193.9 181.203 194.363C207.52 211.199 227.518 238.219 237 268C237 268.66 237 269.32 237 270C214.382 270.657 192.023 267.662 174.812 251.438C162.533 238.278 156.705 222.429 150 206C143.721 190.734 137.299 177.469 124 167C122.484 165.763 122.484 165.763 120.938 164.5C120.298 164.005 119.659 163.51 119 163C142.674 155.28 171.131 161.086 192.988 171.883C216.312 184.277 234.226 204.328 243.16 229.234C243.842 231.481 244.472 233.713 245 236C246.452 233.097 246.297 230.415 246.465 227.176C246.502 226.486 246.54 225.795 246.579 225.084C246.659 223.599 246.738 222.114 246.816 220.629C247.409 209.324 248.071 198.029 249.062 186.75C249.181 185.38 249.181 185.38 249.302 183.982C249.612 180.581 249.955 177.253 250.559 173.891C251.593 167.117 250.957 161.662 248.691 155.23C248.329 154.159 248.329 154.159 247.958 153.065C247.174 150.767 246.37 148.477 245.562 146.188C245.154 145.014 245.154 145.014 244.737 143.818C235.941 118.597 224.706 95.1238 203.875 77.5859C202.155 76.1312 200.567 74.6162 199 73Z" fill="#406709"/>
<path d="M78 89C78 93.6962 75.0185 96.4215 72.25 100.062C71.7112 100.795 71.1723 101.528 70.6172 102.283C70.0887 102.985 69.5602 103.687 69.0156 104.41C68.5338 105.051 68.0521 105.692 67.5557 106.352C65.8324 108.178 64.2904 109.009 62 110C61.34 110.33 60.68 110.66 60 111C63.7658 102.492 71.3007 95.3115 78 89Z" fill="#50741D"/>
<path d="M78 89C78 92.517 77.3077 93.3644 75.25 96.125C74.4843 97.1807 74.4843 97.1807 73.7031 98.2578C71.8053 100.199 70.6489 100.62 68 101C69.4772 97.548 71.4379 95.3504 74.125 92.75C74.8495 92.0436 75.5739 91.3372 76.3203 90.6094C76.8746 90.0783 77.4289 89.5472 78 89Z" fill="#597B28"/>
<path d="M342 251C339.03 252.98 336.06 254.96 333 257C332.67 256.34 332.34 255.68 332 255C334.601 251.989 338.059 249.03 342 251Z" fill="#DBE2CE"/>
<path d="M108 320C110.335 322.257 112.187 324.281 114 327C114 327.99 114 328.98 114 330C113.34 330 112.68 330 112 330C111.328 328.711 110.663 327.419 110 326.125C109.629 325.406 109.257 324.686 108.875 323.945C108 322 108 322 108 320Z" fill="#76924D"/>
<path d="M426 81C427.129 81.9327 428.253 82.8714 429.375 83.8125C430.001 84.3346 430.628 84.8566 431.273 85.3945C433 87 433 87 435 90C432 90 432 90 430.395 88.5391C429.611 87.5916 429.611 87.5916 428.812 86.625C428.018 85.6853 428.018 85.6853 427.207 84.7266C426 83 426 83 426 81Z" fill="#839D5E"/>
</g>
<defs>
<clipPath id="clip0_2_2">
<rect width="512" height="512" rx="30" fill="white"/>
</clipPath>
</defs>
</svg>
